#!OML:ASF F:\VICON\USERDATA\INSTALL\rory3\rory3.ASF
:FULLY-SPECIFIED
:DEGREES
659
root 5.58251 17.3623 1.77953 19.7243 1.18047 0.910006
lowerback -11.7997 -0.056047 11.3716
upperback -15.0142 -0.590001 1.39735
thorax -10.0008 -1.4058 -4.80414
lowerneck -4.2236 19.3424 10.3498
upperneck 7.82906 25.2878 -0.757449
head 4.35073 12.7489 -0.157451
rclavicle -5.1684e-014 7.95139e-015
rhumerus 2.03475 -32.4248 29.0646
rradius 111.151
rwrist -59.9471
rhand -6.04383 -44.3105
rfingers 7.12502
rthumb 19.7902 -73.323
lclavicle -5.1684e-014 7.95139e-015
lhumerus 21.9773 24.8138 -12.7334
lradius 33.2416
lwrist 52.6566
lhand -22.7594 -14.8241
lfingers 7.12502
lthumb 3.67545 15.1239
rfemur -6.71062 12.9041 -9.21608
rtibia 3.38159
rfoot -12.8925 -25.2047
rtoes 34.9564
lfemur -18.0256 3.46312 -30.9868
ltibia 17.5692
lfoot -18.0339 2.93831
ltoes 8.27525
660
root 5.58227 17.364 1.78225 19.8124 1.23116 0.88222
lowerback -12.0101 -0.0671228 11.4075
upperback -14.9827 -0.636578 1.4296
thorax -9.85385 -1.42225 -4.79419
lowerneck -4.16198 19.3837 10.1651
upperneck 7.67609 25.3416 -0.579451
head 4.25011 12.7782 -0.107962
rclavicle 8.74653e-015 -1.43125e-014
rhumerus 1.82394 -32.5554 29.1331
rradius 111.17
rwrist -59.9698
rhand -5.93908 -44.6609
rfingers 7.12502
rthumb 19.8909 -73.6629
lclavicle 8.74653e-015 -1.43125e-014
lhumerus 21.8714 24.948 -12.7739
lradius 33.2155
lwrist 52.6779
lhand -22.1557 -14.7438
lfingers 7.12502
lthumb 4.25841 15.1934
rfemur -6.70323 12.8282 -9.17936
rtibia 3.26266
rfoot -12.5328 -25.3761
rtoes 34.2779
lfemur -18.1139 3.4518 -30.95
ltibia 17.5641
lfoot -17.9828 2.90615
ltoes 8.1649
661
root 5.58226 17.3643 1.78295 19.8091 1.35287 0.871608
lowerback -12.0442 -0.116935 11.454
upperback -14.9576 -0.710256 1.45211
thorax -9.82059 -1.45949 -4.79835
lowerneck -4.19436 19.4652 9.8908
upperneck 7.32218 25.421 -0.123833
head 4.51234 12.8276 0.0133447
rclavicle 3.85642e-014 -1.11319e-014
rhumerus 1.57143 -32.5555 29.2376
rradius 111.217
rwrist -59.8816
rhand -5.98439 -44.8313
rfingers 7.12502
rthumb 19.8474 -73.8379
lclavicle 3.85642e-014 -1.11319e-014
lhumerus 21.7184 24.9296 -12.9439
lradius 33.2381
lwrist 52.877
lhand -21.8104 -14.662
lfingers 7.12502
lthumb 4.59182 15.2682
rfemur -6.62028 12.7339 -9.1077
rtibia 3.26089
rfoot -12.6088 -25.3113
rtoes 34.4428
lfemur -18.0739 3.42591 -30.9075
ltibia 17.548
lfoot -17.9966 2.8631
ltoes 8.06528
662
root 5.5807 17.3643 1.77969 19.8492 1.47955 0.920534
lowerback -12.0196 -0.180007 11.3962
upperback -14.9802 -0.784086 1.47139
thorax -9.87022 -1.49214 -4.74607
lowerneck -4.36929 19.4739 9.91699
upperneck 7.86107 25.4229 -0.200553
head 4.26378 12.8291 0.0499346
rclavicle 1.07344e-014 -1.59028e-014
rhumerus 1.2451 -32.4628 29.4432
rradius 111.36
rwrist -59.8849
rhand -6.32282 -44.8091
rfingers 7.12502
rthumb 19.522 -73.849
lclavicle 1.07344e-014 -1.59028e-014
lhumerus 21.6202 24.8874 -13.0395
lradius 33.267
lwrist 53.1206
lhand -21.9764 -14.7248
lfingers 7.12502
lthumb 4.43156 15.2089
rfemur -6.63843 12.5965 -9.10414
rtibia 3.37975
rfoot -13.1499 -25.0028
rtoes 35.5102
lfemur -18.0858 3.41674 -30.9342
ltibia 17.5017
lfoot -18.0063 2.75993
ltoes 8.02373
663
root 5.57882 17.3625 1.77839 19.8863 1.51339 1.04741
lowerback -12.006 -0.219573 11.2495
upperback -15.0222 -0.824754 1.45243
thorax -9.92501 -1.50297 -4.68568
lowerneck -4.58728 19.3884 10.206
upperneck 8.2358 25.3028 -0.512647
head 4.48589 12.7638 -0.0173386
rclavicle 1.43125e-014 1.59028e-015
rhumerus 0.98075 -32.4806 29.5787
rradius 111.486
rwrist -60.2647
rhand -6.67453 -44.827
rfingers 7.12502
rthumb 19.1838 -73.9008
lclavicle 1.43125e-014 1.59028e-015
lhumerus 21.5973 24.8578 -13.0342
lradius 33.2868
lwrist 53.1663
lhand -22.278 -14.8866
lfingers 7.12502
lthumb 4.14031 15.0529
rfemur -6.79941 12.5109 -9.23736
rtibia 3.69464
rfoot -13.3802 -24.7062
rtoes 35.9703
lfemur -18.0706 3.45118 -31.0698
ltibia 17.4081
lfoot -17.9806 2.61756
ltoes 7.90437
664
root 5.578 17.3595 1.78044 19.8552 1.51975 1.17962
lowerback -11.8755 -0.252687 11.1251
upperback -15.1042 -0.840322 1.41758
thorax -10.0925 -1.51142 -4.65054
lowerneck -4.54089 19.3244 10.3872
upperneck 8.41777 25.2282 -0.647033
head 4.57239 12.7284 -0.0669985
rclavicle 1.07344e-014 -2.54444e-014
rhumerus 0.820786 -32.4918 29.6304
rradius 111.527
rwrist -60.4569
rhand -6.67214 -44.9667
rfingers 7.12502
rthumb 19.1861 -74.0403
lclavicle 1.07344e-014 -2.54444e-014
lhumerus 21.5627 24.6698 -13.0945
lradius 33.3176
lwrist 53.2023
lhand -22.4267 -14.9768
lfingers 7.12502
lthumb 3.99672 14.9655
rfemur -6.86925 12.4793 -9.37593
rtibia 3.98354
rfoot -13.5577 -24.3928
rtoes 36.3594
lfemur -17.958 3.49298 -31.2157
ltibia 17.3143
lfoot -17.9353 2.50855
ltoes 7.82885
665
root 5.57515 17.3578 1.78437 19.8714 1.53064 1.31787
lowerback -11.8221 -0.286438 10.9642
upperback -15.19 -0.8656 1.3838
thorax -10.2199 -1.5189 -4.5958
lowerneck -4.53373 19.3265 10.3654
upperneck 8.56773 25.2195 -0.477823
head 4.59357 12.734 -0.0137452
rclavicle 2.46493e-014 -3.18055e-015
rhumerus 0.618472 -32.3796 29.7092
rradius 111.583
rwrist -60.1999
rhand -6.49174 -44.9037
rfingers 7.12502
rthumb 19.3596 -73.96
lclavicle 2.46493e-014 -3.18055e-015
lhumerus 21.5853 24.5643 -13.1015
lradius 33.3466
lwrist 53.4867
lhand -22.356 -14.9786
lfingers 7.12502
lthumb 4.065 14.9624
rfemur -6.88408 12.4218 -9.50945
rtibia 4.08802
rfoot -13.7553 -24.1768
rtoes 36.8924
lfemur -17.9235 3.5123 -31.3597
ltibia 17.2616
lfoot -17.8841 2.45057
ltoes 8.04252
